<svg width="720" height="496" viewBox="0 0 720 496" fill="none" xmlns="http://www.w3.org/2000/svg">
<path d="M72.8941 179.189H45.4996V211.601H15.5939V233.578H45.4996V298.895C45.4996 307.407 46.5269 314.692 48.5815 320.749C50.7123 326.806 53.6417 331.758 57.3704 335.605C61.0992 339.533 65.551 342.439 70.7252 344.322C75.976 346.122 81.7212 347.024 87.9612 347.024C91.3854 347.024 94.8096 346.818 98.2341 346.408C101.734 346.081 105.082 345.591 108.279 344.937C111.475 344.281 114.442 343.503 117.182 342.603C119.997 341.621 122.394 340.475 124.373 339.165L121.405 318.907C120.036 319.235 118.323 319.644 116.269 320.135C114.29 320.544 112.16 320.912 109.877 321.24C107.518 321.649 105.082 321.977 102.572 322.222C100.06 322.468 97.6253 322.59 95.2662 322.59C91.9941 322.59 88.9885 322.181 86.2489 321.363C83.5093 320.544 81.1506 319.153 79.1719 317.188C77.1935 315.306 75.6337 312.727 74.4921 309.453C73.4267 306.097 72.8941 301.964 72.8941 297.053V233.578H119.351V211.601H72.8941V179.189ZM185.782 230.509V155.861H158.502V344.444H185.782V248.311C187.076 246.183 188.56 244.26 190.234 242.541C191.984 240.822 193.848 239.349 195.827 238.121C198.186 236.565 200.773 235.379 203.589 234.56C206.48 233.742 209.524 233.333 212.72 233.333C216.829 233.333 220.444 233.946 223.564 235.174C226.76 236.32 229.461 238.121 231.668 240.576C233.799 242.868 235.397 245.855 236.462 249.539C237.603 253.222 238.174 257.519 238.174 262.43V344.444H265.455V262.676C265.455 253.263 264.389 245.201 262.259 238.489C260.204 231.695 257.274 226.13 253.469 221.792C249.665 217.454 245.061 214.261 239.658 212.215C234.331 210.169 228.434 209.146 221.966 209.146C217.324 209.146 212.91 209.882 208.725 211.356C204.616 212.747 200.849 214.793 197.425 217.495C195.218 219.131 193.126 221.055 191.147 223.265C189.169 225.475 187.38 227.89 185.782 230.509ZM356.542 346.9C368.563 346.9 378.801 344.362 387.245 339.288C395.77 334.213 402.085 328.484 406.193 322.099L391.584 306.875C387.78 312.113 382.948 316.165 377.088 319.03C371.227 321.813 364.913 323.204 358.14 323.204C353.192 323.204 348.626 322.304 344.444 320.503C340.332 318.702 336.755 316.165 333.713 312.891C330.667 309.781 328.272 306.261 326.52 302.332C324.772 298.404 323.478 293.534 322.639 287.722V287.108H408.249V274.462C408.249 264.968 407.067 256.21 404.71 248.188C402.35 240.167 398.85 233.251 394.21 227.439C389.567 221.71 383.822 217.249 376.972 214.057C370.126 210.783 362.248 209.146 353.346 209.146C345.356 209.146 337.821 210.783 330.744 214.057C323.744 217.249 317.58 221.833 312.254 227.808C306.927 233.783 302.742 240.985 299.698 249.416C296.654 257.847 295.132 267.26 295.132 277.655V282.688C295.132 291.774 296.578 300.245 299.469 308.103C302.437 315.879 306.622 322.631 312.025 328.361C317.428 334.172 323.898 338.715 331.429 341.989C339.038 345.264 347.409 346.9 356.542 346.9ZM353.231 232.964C357.797 232.964 361.79 233.824 365.217 235.542C368.717 237.18 371.609 239.39 373.892 242.172C376.249 245.037 378.077 248.393 379.371 252.24C380.665 256.005 381.311 259.811 381.311 263.658V265.622H323.212C324.048 260.548 325.342 256.005 327.094 251.995C328.842 247.984 331.01 244.546 333.597 241.681C336.185 238.898 339.115 236.77 342.388 235.297C345.734 233.742 349.349 232.964 353.231 232.964ZM518.167 344.444H546.021V342.357C544.499 338.92 543.318 334.827 542.482 330.08C541.72 325.251 541.339 319.848 541.339 313.873V254.818C541.339 247.288 540.045 240.658 537.458 234.929C534.87 229.117 531.296 224.329 526.73 220.564C522.164 216.799 516.723 213.975 510.408 212.092C504.167 210.128 497.432 209.146 490.205 209.146C482.138 209.146 474.946 210.292 468.631 212.584C462.39 214.793 457.141 217.822 452.879 221.669C448.466 225.434 445.117 229.772 442.834 234.683C440.55 239.594 439.372 244.71 439.295 250.03H466.691C466.691 247.493 467.11 245.119 467.946 242.909C468.859 240.617 470.229 238.694 472.054 237.139C473.88 235.42 476.163 234.069 478.904 233.087C481.719 232.105 484.992 231.614 488.719 231.614C492.828 231.614 496.443 232.187 499.562 233.333C502.758 234.397 505.461 235.952 507.667 237.998C509.723 240.044 511.282 242.459 512.349 245.242C513.489 248.025 514.059 251.135 514.059 254.573V263.535H494.198C485.296 263.535 477.306 264.436 470.229 266.236C463.229 268.037 457.33 270.656 452.536 274.094C447.362 277.777 443.404 282.443 440.666 288.091C438.001 293.656 436.669 300.081 436.669 307.366C436.669 313.014 437.697 318.293 439.753 323.204C441.882 328.033 444.851 332.167 448.655 335.605C452.383 339.124 456.872 341.907 462.124 343.953C467.45 345.919 473.31 346.9 479.701 346.9C483.659 346.9 487.348 346.49 490.775 345.671C494.198 344.854 497.394 343.708 500.362 342.234C503.331 340.843 505.992 339.206 508.352 337.323C510.786 335.359 512.957 333.313 514.859 331.185C515.24 333.722 515.657 336.177 516.115 338.551C516.646 340.843 517.331 342.807 518.167 344.444ZM484.953 323.327C481.453 323.327 478.408 322.877 475.82 321.977C473.233 320.994 471.065 319.685 469.316 318.048C467.565 316.411 466.233 314.446 465.32 312.155C464.407 309.781 463.949 307.243 463.949 304.542C463.949 301.268 464.484 298.322 465.547 295.702C466.691 293.083 468.401 290.832 470.684 288.95C473.271 286.74 476.736 285.062 481.072 283.916C485.411 282.688 490.547 282.075 496.481 282.075H514.059V306.63C513.069 308.758 511.663 310.804 509.835 312.768C508.01 314.733 505.842 316.492 503.331 318.048C500.82 319.603 498.002 320.871 494.883 321.854C491.838 322.836 488.53 323.327 484.953 323.327ZM633.452 323.327C627.746 323.327 622.991 322.099 619.186 319.644C615.382 317.188 612.375 313.914 610.169 309.822C607.885 305.893 606.249 301.35 605.26 296.194C604.347 290.955 603.892 285.635 603.892 280.233V275.936C603.892 270.616 604.347 265.377 605.26 260.221C606.249 255.064 607.924 250.48 610.284 246.47C612.49 242.459 615.459 239.226 619.186 236.77C622.991 234.233 627.746 232.964 633.452 232.964C637.183 232.964 640.645 233.66 643.841 235.051C647.113 236.443 649.928 238.325 652.288 240.699C654.572 243.073 656.32 245.855 657.537 249.048C658.83 252.24 659.477 255.637 659.477 259.238H685.16C685.236 251.872 683.981 245.119 681.394 238.98C678.883 232.841 675.345 227.562 670.778 223.142C666.212 218.722 660.736 215.285 654.341 212.829C648.026 210.374 641.141 209.146 633.683 209.146C624.246 209.146 615.952 210.946 608.798 214.548C601.721 218.067 595.787 222.856 590.993 228.913C586.2 234.97 582.584 242.05 580.147 250.153C577.79 258.256 576.609 266.85 576.609 275.936V280.233C576.609 289.4 577.829 298.035 580.263 306.138C582.7 314.16 586.312 321.199 591.106 327.256C595.826 333.313 601.721 338.142 608.798 341.743C615.952 345.264 624.284 347.024 633.795 347.024C640.645 347.024 647.152 345.836 653.316 343.462C659.554 341.007 665.072 337.651 669.866 333.395C674.583 329.302 678.313 324.432 681.051 318.784C683.866 313.055 685.236 306.957 685.16 300.491H659.477C659.477 303.847 658.757 306.916 657.309 309.699C655.939 312.482 654.075 314.896 651.718 316.943C649.281 318.989 646.466 320.585 643.271 321.731C640.152 322.795 636.879 323.327 633.452 323.327ZM747.37 230.509V155.861H720.09V344.444H747.37V248.311C748.664 246.183 750.147 244.26 751.821 242.541C753.57 240.822 755.437 239.349 757.413 238.121C759.773 236.565 762.36 235.379 765.175 234.56C768.067 233.742 771.112 233.333 774.308 233.333C778.416 233.333 782.032 233.946 785.151 235.174C788.347 236.32 791.049 238.121 793.256 240.576C795.385 242.868 796.983 245.855 798.05 249.539C799.19 253.222 799.763 257.519 799.763 262.43V344.444H827.043V262.676C827.043 253.263 825.977 245.201 823.847 238.489C821.791 231.695 818.861 226.13 815.057 221.792C811.253 217.454 806.648 214.261 801.245 212.215C795.92 210.169 790.021 209.146 783.553 209.146C778.91 209.146 774.497 209.882 770.311 211.356C766.203 212.747 762.437 214.793 759.011 217.495C756.804 219.131 754.713 221.055 752.734 223.265C750.755 225.475 748.968 227.89 747.37 230.509ZM918.129 346.9C930.15 346.9 940.388 344.362 948.832 339.288C957.357 334.213 963.671 328.484 967.78 322.099L953.171 306.875C949.367 312.113 944.535 316.165 938.675 319.03C932.814 321.813 926.499 323.204 919.727 323.204C914.779 323.204 910.216 322.304 906.03 320.503C901.919 318.702 898.345 316.165 895.3 312.891C892.257 309.781 889.859 306.261 888.107 302.332C886.359 298.404 885.065 293.534 884.229 287.722V287.108H969.836V274.462C969.836 264.968 968.657 256.21 966.297 248.188C963.937 240.167 960.437 233.251 955.797 227.439C951.154 221.71 945.409 217.249 938.559 214.057C931.713 210.783 923.835 209.146 914.933 209.146C906.943 209.146 899.408 210.783 892.331 214.057C885.331 217.249 879.167 221.833 873.841 227.808C868.513 233.783 864.327 240.985 861.285 249.416C858.24 257.847 856.719 267.26 856.719 277.655V282.688C856.719 291.774 858.166 300.245 861.058 308.103C864.023 315.879 868.208 322.631 873.614 328.361C879.016 334.172 885.485 338.715 893.016 341.989C900.625 345.264 908.996 346.9 918.129 346.9ZM914.817 232.964C919.384 232.964 923.38 233.824 926.804 235.542C930.304 237.18 933.195 239.39 935.479 242.172C937.839 245.037 939.664 248.393 940.958 252.24C942.251 256.005 942.898 259.811 942.898 263.658V265.622H884.799C885.635 260.548 886.929 256.005 888.681 251.995C890.429 247.984 892.597 244.546 895.184 241.681C897.772 238.898 900.702 236.77 903.975 235.297C907.324 233.742 910.936 232.964 914.817 232.964ZM1086.26 209.146C1077.74 209.146 1069.94 211.274 1062.86 215.53C1055.86 219.786 1049.85 225.639 1044.83 233.087L1044.71 230.018L1043.57 211.601H1018V344.444H1045.28V262.43C1046.73 258.501 1048.52 255.023 1050.65 251.995C1052.78 248.966 1055.37 246.47 1058.41 244.505C1061.23 242.459 1064.46 240.945 1068.11 239.962C1071.76 238.98 1075.88 238.489 1080.44 238.489C1084.47 238.489 1088.51 238.735 1092.54 239.226C1096.65 239.717 1100.8 240.454 1104.98 241.436L1108.86 212.461C1106.5 211.56 1103.23 210.783 1099.05 210.128C1094.94 209.473 1090.68 209.146 1086.26 209.146Z" fill="#48464B" fill-opacity="0.3"/>
<path d="M1044 0H77V10H1044V0Z" fill="#48464B" fill-opacity="0.3"/>
<path d="M1044 494H77V484H1044V494Z" fill="#48464B" fill-opacity="0.3"/>
</svg>
