<svg width="201" height="32" viewBox="0 0 201 32" fill="none" xmlns="http://www.w3.org/2000/svg">
<path d="M48.924 9.99999H50.016V1.63599H48.924V9.99999ZM61.3691 9.99999H62.4491V6.12399C62.4491 4.23999 61.2851 3.30399 59.7851 3.30399C58.7771 3.30399 57.8411 3.81999 57.4571 4.76799C57.0251 3.78399 56.1251 3.30399 55.0451 3.30399C54.1811 3.30399 53.4011 3.67599 52.9691 4.37199V3.42399H51.8771V9.99999H52.9691V6.37599C52.9691 4.95999 53.7251 4.25199 54.8291 4.25199C55.9091 4.25199 56.6291 4.93599 56.6291 6.27999V9.99999H57.7091V6.37599C57.7091 4.95999 58.4651 4.25199 59.5691 4.25199C60.6491 4.25199 61.3691 4.93599 61.3691 6.27999V9.99999ZM65.3324 4.63599V3.42399H64.2404V13.12H65.3324V8.78799C65.7404 9.45999 66.5924 10.108 67.7924 10.108C69.5564 10.108 70.9124 8.72799 70.9124 6.68799C70.9124 4.63599 69.5564 3.31599 67.7924 3.31599C66.5924 3.31599 65.7284 3.93999 65.3324 4.63599ZM69.7964 6.68799C69.7964 8.23599 68.7764 9.14799 67.5644 9.14799C66.3764 9.14799 65.3324 8.24799 65.3324 6.69999C65.3324 5.17599 66.3764 4.26399 67.5644 4.26399C68.7764 4.26399 69.7964 5.13999 69.7964 6.68799ZM78.5898 6.69999C78.5898 4.62399 77.1378 3.31599 75.2658 3.31599C73.4058 3.31599 71.9418 4.62399 71.9418 6.69999C71.9418 8.78799 73.3578 10.108 75.2178 10.108C77.0898 10.108 78.5898 8.78799 78.5898 6.69999ZM73.0578 6.69999C73.0578 5.04399 74.1018 4.26399 75.2538 4.26399C76.3818 4.26399 77.4738 5.04399 77.4738 6.69999C77.4738 8.36799 76.3578 9.14799 75.2178 9.14799C74.0778 9.14799 73.0578 8.36799 73.0578 6.69999ZM81.1176 6.42399C81.1176 4.89999 81.9096 4.43199 82.9536 4.43199H83.2416V3.30399C82.1976 3.30399 81.4896 3.75999 81.1176 4.49199V3.42399H80.0256V9.99999H81.1176V6.42399ZM84.7421 8.19999C84.7421 9.51999 85.4021 9.99999 86.5661 9.99999H87.5501V9.07599H86.7461C86.0741 9.07599 85.8341 8.84799 85.8341 8.19999V4.32399H87.5501V3.42399H85.8341V1.76799H84.7421V3.42399H83.8901V4.32399H84.7421V8.19999ZM88.4652 6.68799C88.4652 8.72799 89.8212 10.108 91.5732 10.108C92.7852 10.108 93.6372 9.48399 94.0332 8.77599V9.99999H95.1372V3.42399H94.0332V4.62399C93.6492 3.93999 92.8092 3.31599 91.5852 3.31599C89.8212 3.31599 88.4652 4.63599 88.4652 6.68799ZM94.0332 6.69999C94.0332 8.24799 93.0012 9.14799 91.8012 9.14799C90.6012 9.14799 89.5812 8.23599 89.5812 6.68799C89.5812 5.13999 90.6012 4.26399 91.8012 4.26399C93.0012 4.26399 94.0332 5.17599 94.0332 6.69999ZM101.795 9.99999H102.875V6.12399C102.875 4.23999 101.711 3.30399 100.187 3.30399C99.2986 3.30399 98.5066 3.67599 98.0746 4.35999V3.42399H96.9826V9.99999H98.0746V6.36399C98.0746 4.94799 98.8426 4.25199 99.9586 4.25199C101.063 4.25199 101.795 4.93599 101.795 6.27999V9.99999ZM104.898 8.19999C104.898 9.51999 105.558 9.99999 106.722 9.99999H107.706V9.07599H106.902C106.23 9.07599 105.99 8.84799 105.99 8.19999V4.32399H107.706V3.42399H105.99V1.76799H104.898V3.42399H104.046V4.32399H104.898V8.19999ZM111.825 4.23999C112.953 4.23999 113.913 4.94799 113.901 6.23199H109.749C109.869 4.94799 110.757 4.23999 111.825 4.23999ZM114.897 7.97199H113.721C113.481 8.67999 112.857 9.18399 111.873 9.18399C110.757 9.18399 109.821 8.45199 109.737 7.11999H114.993C115.017 6.89199 115.029 6.69999 115.029 6.45999C115.029 4.65999 113.781 3.31599 111.873 3.31599C109.953 3.31599 108.621 4.62399 108.621 6.69999C108.621 8.78799 110.001 10.108 111.873 10.108C113.505 10.108 114.561 9.17199 114.897 7.97199ZM116.843 7.63599H117.755L117.887 1.63599H116.711L116.843 7.63599ZM118.067 9.32799C118.067 8.90799 117.743 8.58399 117.347 8.58399C116.927 8.58399 116.603 8.90799 116.603 9.32799C116.603 9.74799 116.927 10.072 117.347 10.072C117.743 10.072 118.067 9.74799 118.067 9.32799ZM50.016 25.608V22.536H51.624C52.872 22.536 53.4 23.112 53.4 24.084C53.4 25.02 52.872 25.608 51.624 25.608H50.016ZM54.516 24.084C54.516 22.716 53.592 21.636 51.624 21.636H48.924V30H50.016V26.508H51.624C53.7 26.508 54.516 25.356 54.516 24.084ZM56.9652 26.424C56.9652 24.9 57.7572 24.432 58.8012 24.432H59.0892V23.304C58.0452 23.304 57.3372 23.76 56.9652 24.492V23.424H55.8732V30H56.9652V26.424ZM63.1458 24.24C64.2738 24.24 65.2338 24.948 65.2218 26.232H61.0698C61.1898 24.948 62.0778 24.24 63.1458 24.24ZM66.2178 27.972H65.0418C64.8018 28.68 64.1778 29.184 63.1938 29.184C62.0778 29.184 61.1418 28.452 61.0578 27.12H66.3138C66.3378 26.892 66.3498 26.7 66.3498 26.46C66.3498 24.66 65.1018 23.316 63.1938 23.316C61.2738 23.316 59.9418 24.624 59.9418 26.7C59.9418 28.788 61.3218 30.108 63.1938 30.108C64.8258 30.108 65.8818 29.172 66.2178 27.972ZM70.5872 24.24C71.7152 24.24 72.6752 24.948 72.6632 26.232H68.5112C68.6312 24.948 69.5192 24.24 70.5872 24.24ZM73.6592 27.972H72.4832C72.2432 28.68 71.6192 29.184 70.6352 29.184C69.5192 29.184 68.5832 28.452 68.4992 27.12H73.7552C73.7792 26.892 73.7912 26.7 73.7912 26.46C73.7912 24.66 72.5432 23.316 70.6352 23.316C68.7152 23.316 67.3832 24.624 67.3832 26.7C67.3832 28.788 68.7632 30.108 70.6352 30.108C72.2672 30.108 73.3232 29.172 73.6592 27.972ZM80.0446 30H81.1246V26.124C81.1246 24.24 79.9606 23.304 78.4366 23.304C77.5486 23.304 76.7566 23.676 76.3246 24.36V23.424H75.2326V30H76.3246V26.364C76.3246 24.948 77.0926 24.252 78.2086 24.252C79.3126 24.252 80.0446 24.936 80.0446 26.28V30ZM82.5004 26.7C82.5004 28.788 83.8324 30.108 85.7044 30.108C87.3364 30.108 88.4044 29.196 88.7404 27.888H87.5644C87.3244 28.716 86.6764 29.184 85.7044 29.184C84.5044 29.184 83.6164 28.332 83.6164 26.7C83.6164 25.092 84.5044 24.24 85.7044 24.24C86.6764 24.24 87.3364 24.744 87.5644 25.536H88.7404C88.4044 24.156 87.3364 23.316 85.7044 23.316C83.8324 23.316 82.5004 24.636 82.5004 26.7ZM90.1974 30H91.2894V26.364C91.2894 24.948 92.0574 24.252 93.1734 24.252C94.2774 24.252 95.0094 24.936 95.0094 26.28V30H96.0894V26.124C96.0894 24.24 94.9254 23.304 93.4614 23.304C92.5374 23.304 91.7214 23.676 91.2894 24.372V21.12H90.1974V30ZM97.4652 26.688C97.4652 28.728 98.8212 30.108 100.573 30.108C101.785 30.108 102.637 29.484 103.033 28.776V30H104.137V23.424H103.033V24.624C102.649 23.94 101.809 23.316 100.585 23.316C98.8212 23.316 97.4652 24.636 97.4652 26.688ZM103.033 26.7C103.033 28.248 102.001 29.148 100.801 29.148C99.6012 29.148 98.5812 28.236 98.5812 26.688C98.5812 25.14 99.6012 24.264 100.801 24.264C102.001 24.264 103.033 25.176 103.033 26.7ZM109.422 28.2C109.422 29.52 110.082 30 111.246 30H112.23V29.076H111.426C110.754 29.076 110.514 28.848 110.514 28.2V24.324H112.23V23.424H110.514V21.768H109.422V23.424H108.57V24.324H109.422V28.2ZM119.793 26.7C119.793 24.624 118.341 23.316 116.469 23.316C114.609 23.316 113.145 24.624 113.145 26.7C113.145 28.788 114.561 30.108 116.421 30.108C118.293 30.108 119.793 28.788 119.793 26.7ZM114.261 26.7C114.261 25.044 115.305 24.264 116.457 24.264C117.585 24.264 118.677 25.044 118.677 26.7C118.677 28.368 117.561 29.148 116.421 29.148C115.281 29.148 114.261 28.368 114.261 26.7ZM120.821 26.688C120.821 28.728 122.177 30.108 123.941 30.108C125.141 30.108 125.993 29.496 126.389 28.764V30H127.493V21.12H126.389V24.6C125.933 23.844 124.985 23.316 123.953 23.316C122.177 23.316 120.821 24.636 120.821 26.688ZM126.389 26.7C126.389 28.248 125.357 29.148 124.157 29.148C122.957 29.148 121.937 28.236 121.937 26.688C121.937 25.14 122.957 24.264 124.157 24.264C125.357 24.264 126.389 25.176 126.389 26.7ZM135.578 26.7C135.578 24.624 134.126 23.316 132.254 23.316C130.394 23.316 128.93 24.624 128.93 26.7C128.93 28.788 130.346 30.108 132.206 30.108C134.078 30.108 135.578 28.788 135.578 26.7ZM130.046 26.7C130.046 25.044 131.09 24.264 132.242 24.264C133.37 24.264 134.462 25.044 134.462 26.7C134.462 28.368 133.346 29.148 132.206 29.148C131.066 29.148 130.046 28.368 130.046 26.7ZM141.742 28.212C141.694 25.86 137.878 26.712 137.878 25.152C137.878 24.624 138.358 24.24 139.162 24.24C140.038 24.24 140.542 24.72 140.59 25.38H141.682C141.61 24.096 140.65 23.316 139.198 23.316C137.734 23.316 136.786 24.144 136.786 25.152C136.786 27.6 140.674 26.748 140.674 28.212C140.674 28.752 140.194 29.184 139.33 29.184C138.406 29.184 137.842 28.704 137.782 28.068H136.654C136.726 29.268 137.806 30.108 139.342 30.108C140.794 30.108 141.742 29.292 141.742 28.212ZM152.723 26.7C152.723 24.624 151.271 23.316 149.399 23.316C147.539 23.316 146.075 24.624 146.075 26.7C146.075 28.788 147.491 30.108 149.351 30.108C151.223 30.108 152.723 28.788 152.723 26.7ZM147.191 26.7C147.191 25.044 148.235 24.264 149.387 24.264C150.515 24.264 151.607 25.044 151.607 26.7C151.607 28.368 150.491 29.148 149.351 29.148C148.211 29.148 147.191 28.368 147.191 26.7ZM158.886 28.212C158.838 25.86 155.022 26.712 155.022 25.152C155.022 24.624 155.502 24.24 156.306 24.24C157.182 24.24 157.686 24.72 157.734 25.38H158.826C158.754 24.096 157.794 23.316 156.342 23.316C154.878 23.316 153.93 24.144 153.93 25.152C153.93 27.6 157.818 26.748 157.818 28.212C157.818 28.752 157.338 29.184 156.474 29.184C155.55 29.184 154.986 28.704 154.926 28.068H153.798C153.87 29.268 154.95 30.108 156.486 30.108C157.938 30.108 158.886 29.292 158.886 28.212ZM163.219 26.688C163.219 28.728 164.575 30.108 166.339 30.108C167.539 30.108 168.391 29.496 168.787 28.764V30H169.891V21.12H168.787V24.6C168.331 23.844 167.383 23.316 166.351 23.316C164.575 23.316 163.219 24.636 163.219 26.688ZM168.787 26.7C168.787 28.248 167.755 29.148 166.555 29.148C165.355 29.148 164.335 28.236 164.335 26.688C164.335 25.14 165.355 24.264 166.555 24.264C167.755 24.264 168.787 25.176 168.787 26.7ZM171.329 26.688C171.329 28.728 172.685 30.108 174.437 30.108C175.649 30.108 176.501 29.484 176.897 28.776V30H178.001V23.424H176.897V24.624C176.513 23.94 175.673 23.316 174.449 23.316C172.685 23.316 171.329 24.636 171.329 26.688ZM176.897 26.7C176.897 28.248 175.865 29.148 174.665 29.148C173.465 29.148 172.445 28.236 172.445 26.688C172.445 25.14 173.465 24.264 174.665 24.264C175.865 24.264 176.897 25.176 176.897 26.7ZM179.438 26.688C179.438 28.728 180.794 30.108 182.558 30.108C183.758 30.108 184.61 29.496 185.006 28.764V30H186.11V21.12H185.006V24.6C184.55 23.844 183.602 23.316 182.57 23.316C180.794 23.316 179.438 24.636 179.438 26.688ZM185.006 26.7C185.006 28.248 183.974 29.148 182.774 29.148C181.574 29.148 180.554 28.236 180.554 26.688C180.554 25.14 181.574 24.264 182.774 24.264C183.974 24.264 185.006 25.176 185.006 26.7ZM194.195 26.7C194.195 24.624 192.743 23.316 190.871 23.316C189.011 23.316 187.547 24.624 187.547 26.7C187.547 28.788 188.963 30.108 190.823 30.108C192.695 30.108 194.195 28.788 194.195 26.7ZM188.663 26.7C188.663 25.044 189.707 24.264 190.859 24.264C191.987 24.264 193.079 25.044 193.079 26.7C193.079 28.368 191.963 29.148 190.823 29.148C189.683 29.148 188.663 28.368 188.663 26.7ZM200.359 28.212C200.311 25.86 196.495 26.712 196.495 25.152C196.495 24.624 196.975 24.24 197.779 24.24C198.655 24.24 199.159 24.72 199.207 25.38H200.299C200.227 24.096 199.267 23.316 197.815 23.316C196.351 23.316 195.403 24.144 195.403 25.152C195.403 27.6 199.291 26.748 199.291 28.212C199.291 28.752 198.811 29.184 197.947 29.184C197.023 29.184 196.459 28.704 196.399 28.068H195.271C195.343 29.268 196.423 30.108 197.959 30.108C199.411 30.108 200.359 29.292 200.359 28.212Z" fill="#A0A0B3"/>
<path d="M16 16V10" stroke="#8257E5" stroke-width="2" stroke-linecap="round" stroke-linejoin="round"/>
<path d="M4 19.1747V12.8253C4 10.6893 5.136 8.71465 6.98133 7.63998L12.9813 4.14798C14.8467 3.06265 17.152 3.06265 19.0173 4.14798L25.0173 7.63998C26.864 8.71465 28 10.6893 28 12.8253V19.1747C28 21.3107 26.864 23.2853 25.0187 24.36L19.0187 27.852C17.1533 28.9373 14.848 28.9373 12.9827 27.852L6.98267 24.36C5.136 23.2853 4 21.3107 4 19.1747Z" stroke="#8257E5" stroke-width="2" stroke-linecap="round" stroke-linejoin="round"/>
</svg>
